<?xml version="1.0" standalone="no"?><!DOCTYPE svg PUBLIC "-//W3C//DTD SVG 1.1//EN" "http://www.w3.org/Graphics/SVG/1.1/DTD/svg11.dtd"><svg t="1605255296122" class="icon" viewBox="0 0 1024 1024" version="1.1" xmlns="http://www.w3.org/2000/svg" p-id="3467" xmlns:xlink="http://www.w3.org/1999/xlink" width="200" height="200"><defs><style type="text/css"></style></defs><path d="M511.664873 2.932364C231.121455 2.932364 2.885818 231.177309 2.885818 511.711418c0 280.529455 228.235636 508.779055 508.779055 508.779055 280.543418 0 508.779055-228.2496 508.779054-508.779055 0-280.529455-228.235636-508.779055-508.779054-508.779054z m0 939.282618c-237.381818 0-430.503564-193.135709-430.503564-430.503564 0-237.372509 193.121745-430.503564 430.503564-430.503563s430.503564 193.135709 430.503563 430.498909c0 237.372509-193.117091 430.508218-430.498909 430.508218z" fill="#D61518" p-id="3468"></path><path d="M318.059055 382.706036m-64.646982 0a64.646982 64.646982 0 1 0 129.293963 0 64.646982 64.646982 0 1 0-129.293963 0Z" fill="#D61518" p-id="3469"></path><path d="M705.940945 382.706036m-64.646981 0a64.646982 64.646982 0 1 0 129.293963 0 64.646982 64.646982 0 1 0-129.293963 0Z" fill="#D61518" p-id="3470"></path><path d="M704.539927 751.392582a32.321164 32.321164 0 1 1-61.8496 18.804363c-17.300945-56.906473-70.004364-96.581818-130.420363-96.581818-60.974545 0-114.036364 40.401455-130.857891 98.029382a32.321164 32.321164 0 0 1-62.059055-18.106182c24.808727-85.033891 103.023709-144.570182 192.912291-144.570182 89.078691 0 166.7584 58.4704 192.279273 142.429091z" fill="#D61518" p-id="3471"></path></svg>