<?xml version="1.0" standalone="no"?><!DOCTYPE svg PUBLIC "-//W3C//DTD SVG 1.1//EN" "http://www.w3.org/Graphics/SVG/1.1/DTD/svg11.dtd"><svg t="1605255045656" class="icon" viewBox="0 0 1024 1024" version="1.1" xmlns="http://www.w3.org/2000/svg" p-id="2854" xmlns:xlink="http://www.w3.org/1999/xlink" width="200" height="200"><defs><style type="text/css"></style></defs><path d="M512 132.49316067a31.0689189 31.0689189 0 0 1-31.0689189-31.06891889V69.26791111a31.0689189 31.0689189 0 0 1 62.1378378 0v31.0689189a31.0689189 31.0689189 0 0 1-31.0689189 32.15633066zM786.3385509 432.77425778a151.61632199 151.61632199 0 1 1 151.61632199-151.61632199 151.92701155 151.92701155 0 0 1-151.61632199 151.61632199z m0-241.25015268a89.47848533 89.47848533 0 1 0 89.47848533 89.47848533 89.63382955 89.63382955 0 0 0-89.47848533-89.47848533z" fill="#d81e06" p-id="2855"></path><path d="M886.22512355 867.58377245H137.61953223A90.25520867 90.25520867 0 0 1 84.80236999 704.31660601l89.01245156-64.31266134a42.71976334 42.71976334 0 0 0 17.70928355-34.48649955V390.67587357A320.63123911 320.63123911 0 0 1 612.97398557 86.6665051a31.0689189 31.0689189 0 1 1-19.72876402 58.87560135 258.49340245 258.49340245 0 0 0-339.58327865 245.13376712v214.6862262A105.01294421 105.01294421 0 0 1 210.32080157 690.6462811l-89.01245156 64.31266133a28.11737088 28.11737088 0 0 0 16.46652644 50.79768178h748.4502471a28.11737088 28.11737088 0 0 0 16.46652644-50.79768178L813.52385422 690.6462811a105.01294421 105.01294421 0 0 1-43.34114133-84.81814755v-46.137344a31.0689189 31.0689189 0 0 1 62.13783666 0v45.67131022a42.71976334 42.71976334 0 0 0 17.70928355 34.48649956L939.19763001 704.31660601a90.25520867 90.25520867 0 0 1-52.81716224 163.42251065z" fill="#0073FF" p-id="2856"></path><path d="M512 985.80100779a180.66576157 180.66576157 0 0 1-175.85007843-142.29564758 31.0689189 31.0689189 0 1 1 60.5843911-13.04894578 117.75120157 117.75120157 0 0 0 230.37603044 0 31.0689189 31.0689189 0 1 1 60.73973532 12.89360157A180.66576157 180.66576157 0 0 1 512 985.80100779z" fill="#0073FF" p-id="2857"></path></svg>