<?xml version="1.0" standalone="no"?><!DOCTYPE svg PUBLIC "-//W3C//DTD SVG 1.1//EN" "http://www.w3.org/Graphics/SVG/1.1/DTD/svg11.dtd"><svg t="1605255068688" class="icon" viewBox="0 0 1024 1024" version="1.1" xmlns="http://www.w3.org/2000/svg" p-id="3612" xmlns:xlink="http://www.w3.org/1999/xlink" width="200" height="200"><defs><style type="text/css"></style></defs><path d="M951.263858 774.985394a38.390954 38.390954 0 1 1-65.840486-39.542683 435.09748 435.09748 0 1 0-149.852691 149.852691 38.390954 38.390954 0 0 1 39.478698 65.840487 511.879388 511.879388 0 1 1 176.150495-176.150495zM347.054225 484.813766l101.160164 100.776254 228.490162-228.810086a38.390954 38.390954 0 0 1 54.323201 54.259215l-255.555785 255.939694a38.390954 38.390954 0 0 1-54.259215 0l-128.353757-127.969847a38.390954 38.390954 0 1 1 54.19523-54.387185z" fill="#58CA18" p-id="3613"></path></svg>