<?xml version="1.0" standalone="no"?><!DOCTYPE svg PUBLIC "-//W3C//DTD SVG 1.1//EN" "http://www.w3.org/Graphics/SVG/1.1/DTD/svg11.dtd"><svg t="1605255102773" class="icon" viewBox="0 0 1024 1024" version="1.1" xmlns="http://www.w3.org/2000/svg" p-id="6796" xmlns:xlink="http://www.w3.org/1999/xlink" width="200" height="200"><defs><style type="text/css"></style></defs><path d="M512 972.8A460.8 460.8 0 1 0 512 51.2a460.8 460.8 0 0 0 0 921.6z m0 51.2A512 512 0 1 1 512 0a512 512 0 0 1 0 1024z" fill="#FABD44" p-id="6797"></path><path d="M389.76 658.56H290.944A34.24 34.24 0 0 1 256 625.152a32.448 32.448 0 0 1 6.272-19.072l4.288-5.12c12.544-14.72 75.264-93.12 78.592-181.248l0.128-7.68c0-3.008 0-6.144 0.128-7.872 2.56-68.224 50.432-127.36 119.168-146.56L552.64 256c71.104 16.96 121.664 75.392 125.76 145.408 0.192 2.368 0.192 7.872 0.192 10.432 0 1.088 0 6.272 0.128 9.024 3.84 89.408 67.52 167.296 80.256 182.016l1.792 2.048a32.128 32.128 0 0 1 7.232 20.224 34.24 34.24 0 0 1-34.944 33.408h-114.56c-23.168 37.056-61.952 58.24-106.496 58.24-51.136 0-101.248-23.936-122.24-58.24z" fill="#FABD44" p-id="6798"></path></svg>